<svg height="512" viewBox="0 0 96 96" width="512" xmlns="http://www.w3.org/2000/svg" xmlns:xlink="http://www.w3.org/1999/xlink"><linearGradient id="New_Gradient_Swatch_1" gradientUnits="userSpaceOnUse" x1="17.571" x2="75.228" y1="63.315" y2="5.658"><stop offset="0" stop-color="#34cdfa"/><stop offset="1" stop-color="#e8d9f1"/></linearGradient><g id="_01-cart" data-name="01-cart"><g id="Flat"><path d="m95.209 25.7a4 4 0 0 0 -3.209-1.613h-72.411l-3.743-13.1a4 4 0 0 0 -3.817-2.9l-12-.087-.058 8 9.006.065 15.177 53.121a4 4 0 0 0 3.846 2.901h52a4 4 0 0 0 3.832-2.851l12-40a4 4 0 0 0 -.623-3.536z" fill="#e6f9fe"/><circle cx="40" cy="84" fill="#e6f9fe" r="8"/><path d="m40 96a12 12 0 1 1 12-12 12.013 12.013 0 0 1 -12 12zm0-16a4 4 0 1 0 4 4 4 4 0 0 0 -4-4z" fill="#01c0f9"/><circle cx="68" cy="84" fill="#e6f9fe" r="8"/><path d="m68 96a12 12 0 1 1 12-12 12.013 12.013 0 0 1 -12 12zm0-16a4 4 0 1 0 4 4 4 4 0 0 0 -4-4z" fill="#01c0f9"/><path d="m95.209 25.7a4 4 0 0 0 -3.209-1.613h-72.411l-3.743-13.1a4 4 0 0 0 -3.817-2.9l-12-.087-.058 8 9.006.065 15.177 53.121a4 4 0 0 0 3.846 2.901h52a4 4 0 0 0 3.832-2.851l5.168-17.236h-49v-8h51.4l4.43-14.764a4 4 0 0 0 -.621-3.536z" fill="url(#New_Gradient_Swatch_1)"/></g></g></svg>